<?xml version="1.0" encoding="UTF-8" standalone="no"?>
<!DOCTYPE svg PUBLIC "-//W3C//DTD SVG 1.1//EN" "http://www.w3.org/Graphics/SVG/1.1/DTD/svg11.dtd">
<svg xmlns="http://www.w3.org/2000/svg" width="65" viewBox="0 0 400 398" enable-background="white 0 0 400 398">
<path fill="#FFFFFE" opacity="1.000000" stroke="none" 
	d="
M216.000000,399.000000 
	C144.022400,399.000000 72.544792,399.000000 1.033593,399.000000 
	C1.033593,266.397278 1.033593,133.794571 1.033593,1.095924 
	C134.227554,1.095924 267.455200,1.095924 400.841431,1.095924 
	C400.841431,133.666519 400.841431,266.333252 400.841431,399.000000 
	C339.461304,399.000000 277.980652,399.000000 216.000000,399.000000 
M294.088593,341.537872 
	C308.512512,334.864227 318.198486,323.094208 326.633026,310.313965 
	C332.460846,301.483521 334.443329,291.278076 335.393860,280.675537 
	C337.191864,260.618958 335.830414,240.965012 330.415161,221.578827 
	C327.249542,210.246063 324.217194,198.875412 320.971436,187.565842 
	C317.452026,175.302765 313.845245,163.062958 310.102722,150.866364 
	C307.578094,142.638794 304.104706,134.651184 302.201294,126.295296 
	C298.671570,110.799561 296.263489,95.050713 292.857269,79.523773 
	C289.702118,65.141190 287.523651,50.396942 278.926300,37.732388 
	C275.075836,32.060341 271.231354,31.115227 266.502136,36.215954 
	C259.972443,43.258583 255.416122,51.518974 252.800705,60.828918 
	C251.139847,66.740913 249.593842,72.726433 247.298447,78.396454 
	C246.497711,80.374382 243.637619,82.767372 241.664429,82.816460 
	C230.049698,83.105415 218.417984,82.588905 206.794235,82.669037 
	C192.878387,82.764969 178.949432,82.896233 165.058685,83.628738 
	C160.286758,83.880371 157.650589,82.203178 156.236298,78.233818 
	C154.682419,73.872749 153.430038,69.381546 152.374237,64.870300 
	C149.924698,54.403957 146.050949,44.726830 138.753220,36.552673 
	C134.290878,31.554428 129.113937,30.951498 125.597214,36.566723 
	C121.850136,42.549759 118.334106,49.042946 116.518982,55.797588 
	C112.177757,71.952568 107.595001,88.230492 105.541428,104.760864 
	C103.378555,122.171043 97.104347,138.206070 92.549255,154.806396 
	C87.856422,171.908722 81.903625,188.669479 77.357018,205.806488 
	C73.750397,219.400543 71.547455,233.361923 68.513847,247.114471 
	C65.499191,260.781097 66.484695,274.538422 68.621803,288.024017 
	C70.646507,300.800323 77.467560,311.832397 85.552521,321.904388 
	C87.309380,324.092957 89.089737,326.393494 91.294373,328.070404 
	C104.530701,338.138428 117.928474,348.002075 133.807144,353.675415 
	C144.683197,357.561310 155.366409,363.125336 166.583160,364.651581 
	C183.271057,366.922272 200.372986,367.028656 217.261429,366.596924 
	C226.482269,366.361206 235.678528,363.342407 244.793762,361.188812 
	C261.936920,357.138580 278.231445,350.829224 294.088593,341.537872 
z"/>
<path fill="#AB845E" opacity="1.000000" stroke="none" 
	d="
M293.794312,341.755737 
	C278.231445,350.829224 261.936920,357.138580 244.793762,361.188812 
	C235.678528,363.342407 226.482269,366.361206 217.261429,366.596924 
	C200.372986,367.028656 183.271057,366.922272 166.583160,364.651581 
	C155.366409,363.125336 144.683197,357.561310 133.807144,353.675415 
	C117.928474,348.002075 104.530701,338.138428 91.294373,328.070404 
	C89.089737,326.393494 87.309380,324.092957 85.552521,321.904388 
	C77.467560,311.832397 70.646507,300.800323 68.621803,288.024017 
	C66.484695,274.538422 65.499191,260.781097 68.513847,247.114471 
	C71.547455,233.361923 73.750397,219.400543 77.357018,205.806488 
	C81.903625,188.669479 87.856422,171.908722 92.549255,154.806396 
	C97.104347,138.206070 103.378555,122.171043 105.541428,104.760864 
	C107.595001,88.230492 112.177757,71.952568 116.518982,55.797588 
	C118.334106,49.042946 121.850136,42.549759 125.597214,36.566723 
	C129.113937,30.951498 134.290878,31.554428 138.753220,36.552673 
	C146.050949,44.726830 149.924698,54.403957 152.374237,64.870300 
	C153.430038,69.381546 154.682419,73.872749 156.236298,78.233818 
	C157.650589,82.203178 160.286758,83.880371 165.058685,83.628738 
	C178.949432,82.896233 192.878387,82.764969 206.794235,82.669037 
	C218.417984,82.588905 230.049698,83.105415 241.664429,82.816460 
	C243.637619,82.767372 246.497711,80.374382 247.298447,78.396454 
	C249.593842,72.726433 251.139847,66.740913 252.800705,60.828918 
	C255.416122,51.518974 259.972443,43.258583 266.502136,36.215954 
	C271.231354,31.115227 275.075836,32.060341 278.926300,37.732388 
	C287.523651,50.396942 289.702118,65.141190 292.857269,79.523773 
	C296.263489,95.050713 298.671570,110.799561 302.201294,126.295296 
	C304.104706,134.651184 307.578094,142.638794 310.102722,150.866364 
	C313.845245,163.062958 317.452026,175.302765 320.971436,187.565842 
	C324.217194,198.875412 327.249542,210.246063 330.415161,221.578827 
	C335.830414,240.965012 337.191864,260.618958 335.393860,280.675537 
	C334.443329,291.278076 332.460846,301.483521 326.633026,310.313965 
	C318.198486,323.094208 308.512512,334.864227 293.794312,341.755737 
M252.244476,254.158783 
	C249.986328,247.862854 244.066330,244.968246 238.866547,243.311859 
	C231.187607,240.865707 222.775940,240.268677 214.626358,239.845001 
	C197.667923,238.963409 180.670807,237.034576 164.088257,243.721436 
	C158.150833,246.115677 153.568192,249.377411 149.914795,254.225525 
	C146.772034,258.396057 149.577759,262.827576 149.720581,267.189545 
	C150.019501,276.318481 155.732025,281.387909 162.860489,284.103607 
	C170.109985,286.865387 178.138641,287.875488 185.927063,288.821350 
	C190.764755,289.408875 195.880905,287.721436 200.714294,288.322968 
	C215.183060,290.123718 229.140656,288.695038 242.215515,282.269684 
	C252.028046,277.447540 259.424683,265.630219 252.244476,254.158783 
M245.379654,196.107178 
	C244.585159,197.828201 243.228210,199.508362 243.099640,201.277756 
	C242.682846,207.014069 246.249390,212.378494 251.996567,213.846786 
	C257.439697,215.237411 267.451538,211.160522 269.417755,206.713104 
	C269.670074,206.142365 269.877228,205.339249 269.672516,204.811722 
	C267.611786,199.501831 266.416718,193.553558 260.279633,191.040970 
	C254.260132,188.576492 249.737976,190.989670 245.379654,196.107178 
M148.439423,214.317749 
	C158.411530,212.576263 162.818863,203.143372 157.634628,195.091675 
	C155.002304,191.003418 150.728882,189.974304 146.904236,190.280594 
	C143.513474,190.552109 138.736176,192.545258 137.443085,195.185226 
	C135.804977,198.529556 132.547653,202.304260 135.301651,207.332947 
	C138.201492,212.627960 142.082214,214.555740 148.439423,214.317749 
z"/>
<path fill="#4F3B2A" opacity="1.000000" stroke="none" 
	d="
M252.377884,254.531464 
	C259.424683,265.630219 252.028046,277.447540 242.215515,282.269684 
	C229.140656,288.695038 215.183060,290.123718 200.714294,288.322968 
	C195.880905,287.721436 190.764755,289.408875 185.927063,288.821350 
	C178.138641,287.875488 170.109985,286.865387 162.860489,284.103607 
	C155.732025,281.387909 150.019501,276.318481 149.720581,267.189545 
	C149.577759,262.827576 146.772034,258.396057 149.914795,254.225525 
	C153.568192,249.377411 158.150833,246.115677 164.088257,243.721436 
	C180.670807,237.034576 197.667923,238.963409 214.626358,239.845001 
	C222.775940,240.268677 231.187607,240.865707 238.866547,243.311859 
	C244.066330,244.968246 249.986328,247.862854 252.377884,254.531464 
z"/>
<path fill="#523D2A" opacity="1.000000" stroke="none" 
	d="
M245.649475,195.838654 
	C249.737976,190.989670 254.260132,188.576492 260.279633,191.040970 
	C266.416718,193.553558 267.611786,199.501831 269.672516,204.811722 
	C269.877228,205.339249 269.670074,206.142365 269.417755,206.713104 
	C267.451538,211.160522 257.439697,215.237411 251.996567,213.846786 
	C246.249390,212.378494 242.682846,207.014069 243.099640,201.277756 
	C243.228210,199.508362 244.585159,197.828201 245.649475,195.838654 
z"/>
<path fill="#513B29" opacity="1.000000" stroke="none" 
	d="
M148.066116,214.217148 
	C142.082214,214.555740 138.201492,212.627960 135.301651,207.332947 
	C132.547653,202.304260 135.804977,198.529556 137.443085,195.185226 
	C138.736176,192.545258 143.513474,190.552109 146.904236,190.280594 
	C150.728882,189.974304 155.002304,191.003418 157.634628,195.091675 
	C162.818863,203.143372 158.411530,212.576263 148.066116,214.217148 
z"/>
</svg>